<?xml version="1.0" encoding="UTF-8" standalone="no"?>
<!-- Uploaded to: SVG Repo, www.svgrepo.com, Generator: SVG Repo Mixer Tools -->

<svg
   fill="#000000"
   width="800px"
   height="800px"
   viewBox="0 -0.5 25 25"
   version="1.1"
   id="svg4"
   sodipodi:docname="github.svg"
   inkscape:version="1.2.2 (b0a8486541, 2022-12-01)"
   xmlns:inkscape="http://www.inkscape.org/namespaces/inkscape"
   xmlns:sodipodi="http://sodipodi.sourceforge.net/DTD/sodipodi-0.dtd"
   xmlns="http://www.w3.org/2000/svg"
   xmlns:svg="http://www.w3.org/2000/svg">
  <defs
     id="defs8" />
  <sodipodi:namedview
     id="namedview6"
     pagecolor="#ffffff"
     bordercolor="#000000"
     borderopacity="0.25"
     inkscape:showpageshadow="2"
     inkscape:pageopacity="0.0"
     inkscape:pagecheckerboard="0"
     inkscape:deskcolor="#d1d1d1"
     showgrid="false"
     inkscape:zoom="0.58513086"
     inkscape:cx="128.17646"
     inkscape:cy="402.47407"
     inkscape:window-width="1600"
     inkscape:window-height="831"
     inkscape:window-x="0"
     inkscape:window-y="32"
     inkscape:window-maximized="1"
     inkscape:current-layer="svg4" />
  <path
     d="m 12.493691,1.1804486 h 0.08382 c 2.020695,0 3.911605,0.5524917 5.531225,1.5141697 l -0.04957,-0.02794 c 1.686317,0.9860129 3.051773,2.3514695 4.009846,3.9855109 l 0.02794,0.052275 c 0.937343,1.5943846 1.490736,3.5114318 1.490736,5.5573628 0,4.872382 -3.139198,9.012915 -7.505054,10.507256 l -0.07841,0.02343 c -0.05678,0.01803 -0.121675,0.02794 -0.18837,0.02794 -0.146009,0 -0.281203,-0.04867 -0.390259,-0.129786 l 0.0018,9.01e-4 c -0.115365,-0.103648 -0.187468,-0.253263 -0.187468,-0.420002 0,-0.0045 0,-0.009 0,-0.01262 v 9.02e-4 q 0,-0.04326 0.0072,-1.104984 0.0072,-1.061721 0.0072,-1.941381 c 0.0063,-0.0676 0.0099,-0.145108 0.0099,-0.224422 0,-0.713823 -0.291118,-1.359148 -0.76069,-1.825115 0.556998,-0.05498 1.059918,-0.146911 1.548418,-0.274894 l -0.0685,0.01532 c 0.51644,-0.144207 0.967086,-0.336182 1.385285,-0.578629 l -0.02794,0.01532 c 0.457856,-0.252362 0.845411,-0.573222 1.164469,-0.953567 l 0.0054,-0.0063 c 0.335281,-0.429014 0.597557,-0.933738 0.757085,-1.482624 l 0.0081,-0.03154 c 0.18837,-0.615582 0.296525,-1.323096 0.296525,-2.055846 0,-0.04056 0,-0.08202 -9.02e-4,-0.122576 v 0.0063 c 0,-0.01983 9.02e-4,-0.04236 9.02e-4,-0.06489 0,-1.124812 -0.434423,-2.1477773 -1.143739,-2.9111714 l 0.0027,0.0027 c 0.151417,-0.3965682 0.238842,-0.8544243 0.238842,-1.3330101 0,-0.5849381 -0.130687,-1.1383311 -0.364122,-1.6349427 l 0.0099,0.023434 c -0.103648,-0.019828 -0.221717,-0.031545 -0.343392,-0.031545 -0.301031,0 -0.584938,0.070301 -0.837299,0.1946789 l 0.01082,-0.00451 c -0.511933,0.1892712 -0.949961,0.4037786 -1.362753,0.6543376 l 0.03425,-0.019828 -0.548886,0.3460959 c -0.830991,-0.237941 -1.785458,-0.3749373 -2.771471,-0.3749373 -0.986013,0 -1.940481,0.1369963 -2.8453774,0.3929631 L 9.7248566,6.916259 Q 9.4941926,6.7576402 9.1111437,6.5260083 C 8.774962,6.3331319 8.3774924,6.1465646 7.964701,5.9897399 L 7.9052157,5.9699115 C 7.6411373,5.8311126 7.3283892,5.7499963 6.9958126,5.7499963 c -0.1117601,0 -0.2217177,0.00901 -0.3280701,0.027039 l 0.011717,-0.0018 C 6.455939,6.2475092 6.3252518,6.8018035 6.3252518,7.3867416 c 0,0.4785858 0.087425,0.9373432 0.2478551,1.3600489 L 6.564094,8.720653 c -0.7075138,0.7606897 -1.141035,1.783656 -1.141035,2.908468 0,0.02253 0,0.04597 9.013e-4,0.0685 v -0.0036 c -9.013e-4,0.03515 -9.013e-4,0.07571 -9.013e-4,0.117168 0,0.729145 0.108155,1.433954 0.3100443,2.097305 l -0.013519,-0.05137 c 0.1703441,0.579531 0.4290148,1.083353 0.7660978,1.525887 l -0.00811,-0.01172 c 0.3190572,0.392062 0.70481,0.714724 1.1419363,0.957172 l 0.019828,0.0099 c 0.389358,0.227125 0.840905,0.4191 1.3158856,0.553393 l 0.041459,0.0099 c 0.4200018,0.112661 0.9229224,0.204593 1.43756,0.255967 l 0.04146,0.0036 c -0.388457,0.385753 -0.6471274,0.901291 -0.7066126,1.476315 l -9.013e-4,0.01082 c -0.1865674,0.09103 -0.4037786,0.164936 -0.6300028,0.212705 l -0.018927,0.0036 c -0.2307306,0.04597 -0.494809,0.0721 -0.7660977,0.0721 -0.019828,0 -0.039657,0 -0.059485,0 h 0.0027 c -0.3551062,-0.0072 -0.6813737,-0.122547 -0.9508599,-0.31362 l 0.00541,0.0036 c -0.3343814,-0.23343 -0.6047688,-0.536264 -0.79404,-0.888669 l -0.00631,-0.01352 C 6.3721189,17.421721 6.1368819,17.171162 5.8583828,16.979187 l -0.00811,-0.0054 C 5.6474806,16.821461 5.4086384,16.702491 5.150869,16.631289 l -0.014421,-0.0036 -0.2884132,-0.04326 c -0.02073,-0.0018 -0.045065,-0.0027 -0.069399,-0.0027 -0.1261808,0 -0.2460525,0.02524 -0.3551088,0.0694 l 0.00631,-0.0027 q -0.1153653,0.06489 -0.072103,0.165838 c 0.03515,0.07751 0.078412,0.144206 0.1306873,0.20279 L 4.48752,17.016156 c 0.054979,0.06489 0.1171679,0.121674 0.1847647,0.171245 l 0.0027,0.0018 0.1009447,0.0721 c 0.2550654,0.133391 0.4650663,0.319057 0.6245949,0.543479 l 0.00361,0.0054 c 0.1721467,0.213606 0.3235636,0.455152 0.445238,0.713823 l 0.00901,0.02163 0.1442066,0.331675 c 0.1216744,0.362319 0.3424908,0.665153 0.6309041,0.884167 l 0.00451,0.0036 c 0.2703875,0.210902 0.596655,0.362319 0.9526651,0.430817 l 0.014421,0.0018 c 0.2974261,0.05768 0.6435221,0.09373 0.9968283,0.100944 h 0.00631 c 0.040558,0.0018 0.087425,0.0018 0.1351937,0.0018 0.2352371,0 0.4659677,-0.01893 0.6912905,-0.05588 l -0.024335,0.0036 0.3316752,-0.05768 q 0,0.548886 0.00721,1.278031 0.00721,0.729145 0.00721,0.786827 v 0.01262 c 0,0.166739 -0.072103,0.316354 -0.1874686,0.420002 h -9.013e-4 c -0.1072537,0.08021 -0.2415461,0.128885 -0.3884566,0.128885 -0.067597,0 -0.1324899,-0.0099 -0.1928764,-0.02884 l 0.00451,9.01e-4 C 4.5488063,21.266631 1.412312,17.126098 1.412312,12.252815 c 0,-2.044129 0.5515904,-3.9593741 1.515071,-5.6051324 L 2.898542,6.6999576 C 3.8845545,5.0136412 5.2500111,3.6481846 6.8840525,2.6901118 l 0.052275,-0.02794 C 8.5036733,1.7302364 10.39278,1.1795473 12.40987,1.1795473 H 12.4982 12.4937 Z M 5.6078238,17.102664 q 0.043262,-0.100945 -0.1009447,-0.173048 -0.1442066,-0.04326 -0.1874686,0.02884 -0.043262,0.100945 0.1009446,0.173048 0.129786,0.08652 0.1874687,-0.02884 z m 0.4479418,0.491204 q 0.1009447,-0.0721 -0.028841,-0.230731 -0.1442066,-0.129786 -0.2307306,-0.04326 -0.1009447,0.0721 0.028841,0.230731 0.1433054,0.141503 0.2307306,0.04236 z m 0.4326199,0.64893 q 0.129786,-0.100945 0,-0.273993 -0.1153653,-0.187469 -0.2451512,-0.08652 -0.129786,0.0721 0,0.259572 0.1297859,0.187469 0.2451512,0.100945 z m 0.6056679,0.606569 q 0.1153653,-0.115366 -0.057683,-0.273993 -0.1730479,-0.173048 -0.2884132,-0.04326 -0.129786,0.115366 0.057683,0.273993 0.173048,0.173048 0.2884133,0.03966 z m 0.8228791,0.360516 q 0.043262,-0.158627 -0.1874686,-0.23073 -0.21631,-0.05768 -0.2739926,0.100944 -0.057683,0.158628 0.1874686,0.21631 0.21631,0.08743 0.2739926,-0.08652 z m 0.9094031,0.0721 q 0,-0.187469 -0.2451513,-0.158628 -0.2307306,0 -0.2307306,0.158628 0,0.187468 0.2451513,0.158627 0.2307306,9.01e-4 0.2307306,-0.157726 z m 0.8372998,-0.144207 q -0.028841,-0.158627 -0.259572,-0.129786 -0.2307306,0.04326 -0.2018893,0.21631 0.028841,0.173048 0.259572,0.115365 0.2307306,-0.05768 0.2027906,-0.201889 z"
     id="path2"
     style="stroke-width:0.901291" />
</svg>
